PathFileType	4	(X/Y/Z)	c:/Users/goper/Files/vsCode/490R/osim_files/C08/C08_SSWS_05.trc
DataRate	CameraRate	NumFrames	NumMarkers	Units                	OrigDataRate	OrigDataStartFrame	OrigNumFrames
250.00	250.00	6	36	mm	250.0	1778	3554
                Frame#	Time	LPSIS			LASIS			LTH1			LTH2			LTH3			LTH4			LLFE			LMFE			LSH1			LSH2			LSH3			LSH4			LLMAL			LMMAL			LCAL			LMTP5			LTOE			LMTP1			RPSIS			RASIS			RTH1			RTH2			RTH3			RTH4			RLFE			RMFE			RSH1			RSH2			RSH3			RSH4			RLMAL			RMMAL			RCAL			RMTP1			RTOE			RMTP5		
		X1	Y1	Z1	X2	Y2	Z2	X3	Y3	Z3	X4	Y4	Z4	X5	Y5	Z5	X6	Y6	Z6	X7	Y7	Z7	X8	Y8	Z8	X9	Y9	Z9	X10	Y10	Z10	X11	Y11	Z11	X12	Y12	Z12	X13	Y13	Z13	X14	Y14	Z14	X15	Y15	Z15	X16	Y16	Z16	X17	Y17	Z17	X18	Y18	Z18	X19	Y19	Z19	X20	Y20	Z20	X21	Y21	Z21	X22	Y22	Z22	X23	Y23	Z23	X24	Y24	Z24	X25	Y25	Z25	X26	Y26	Z26	X27	Y27	Z27	X28	Y28	Z28	X29	Y29	Z29	X30	Y30	Z30	X31	Y31	Z31	X32	Y32	Z32	X33	Y33	Z33	X34	Y34	Z34	X35	Y35	Z35	X36	Y36	Z36

1778	7.10800	-2202.65234	1026.58228	251.27756	-2415.69214	986.67712	321.09991	-2394.65308	718.06512	391.65997	-2420.20898	646.44775	373.67786	-2445.53369	577.44849	363.06058	-2493.01880	678.99847	358.79562	-2464.16040	533.33044	355.18790	-2473.98755	524.50482	227.41878	-2445.22754	397.56635	362.14325	-2463.65308	353.64310	362.75461	-2503.15747	415.01495	364.23175	-2512.86987	370.45535	363.92343	-2546.15967	93.30853	309.78296	-2570.68774	111.01058	225.00618	-2491.63574	68.88453	251.00150	-2671.74463	56.49488	337.85077	-2723.40161	99.95965	285.93555	-2696.89526	71.61983	231.17105	-2198.24561	1027.78125	191.49976	-2386.34888	988.18353	81.82344	-2272.51294	735.83447	30.64464	-2257.97192	658.29694	47.65200	-2239.72534	582.29724	57.40318	-2332.82861	648.56067	70.85708	-2223.32935	510.75064	71.73423	-2229.46997	505.36835	198.88055	-2135.28149	460.54898	61.28353	-2118.76416	419.28094	56.76698	-2189.54907	430.96045	66.57590	-2165.89258	393.13885	62.22230	-1969.04297	154.88460	117.92266	-1999.56323	149.48151	204.20581	-1905.93872	161.25984	188.12415	-2083.31152	43.00215	198.73485	-2101.93091	53.93410	142.63000	-2045.58044	44.72509	82.26740
1779	7.11200	-2207.42334	1026.74023	251.55850	-2421.37622	986.32697	321.34412	-2400.47559	718.55994	391.65088	-2426.59253	647.08160	374.39270	-2451.05884	577.74768	363.47626	-2498.67163	679.12109	358.65503	-2469.61475	533.65582	355.63474	-2478.72339	524.43115	227.79416	-2450.08545	398.07922	363.39084	-2468.17041	354.06427	363.92557	-2508.06299	415.21747	364.70883	-2517.58618	370.49713	364.58444	-2547.31494	92.96008	310.07492	-2572.05591	110.57770	225.11516	-2492.55298	69.24306	251.14764	-2672.47803	54.70189	337.93317	-2724.97144	97.50895	286.29199	-2697.88330	69.76600	231.39481	-2203.70752	1027.47290	192.03542	-2391.14160	987.95142	81.89075	-2278.40771	735.29779	30.96076	-2264.39941	657.64398	47.69777	-2246.59912	581.31702	57.21912	-2339.40405	648.26154	70.46545	-2230.30786	510.13000	71.47854	-2237.08301	504.25027	198.37766	-2142.37524	460.72147	61.16185	-2125.29443	419.68655	56.58775	-2196.29126	430.41055	66.27175	-2172.11865	392.93936	61.88824	-1972.15259	157.29800	117.57534	-2002.62378	151.41571	203.83661	-1909.34094	165.10808	187.71057	-2083.87744	43.11659	198.81059	-2102.65845	53.97723	142.61426	-2046.69421	45.09144	82.60275
1780	7.11600	-2212.87549	1026.78943	252.04437	-2426.96216	986.09509	321.55313	-2406.31763	719.16754	391.74228	-2432.28540	647.63123	374.58591	-2456.71533	578.20642	363.92389	-2504.42212	679.45154	358.70367	-2475.15796	534.13861	356.14655	-2483.57593	524.61963	228.23528	-2454.97681	398.62888	364.71326	-2472.63062	354.49951	365.13940	-2513.14624	415.37595	365.24423	-2521.28809	370.24255	364.45908	-2548.19531	92.75558	310.22824	-2573.14282	110.26676	225.15779	-2493.17236	69.55869	251.16025	-2673.08960	53.30620	337.96341	-2726.39087	95.45370	286.65497	-2698.78345	68.22702	231.56693	-2209.84888	1027.00098	192.77760	-2394.85498	987.52576	81.71022	-2284.40283	734.72144	31.31633	-2271.00513	656.93744	47.76117	-2253.81934	580.39392	57.09298	-2346.13843	647.88135	70.12292	-2237.88379	509.44376	71.03013	-2245.04175	503.12354	197.86719	-2149.73950	460.96579	60.96185	-2132.09668	420.08459	56.39772	-2203.28369	429.88046	65.90351	-2178.64819	392.72348	61.54199	-1975.01819	160.18791	117.05475	-2005.82507	153.41075	203.43694	-1912.87463	169.28230	187.30682	-2084.54199	43.29322	198.86647	-2103.38623	53.95508	142.60762	-2047.55786	45.81276	82.58208
1781	7.12000	-2219.21143	1026.58252	252.83092	-2432.54395	985.96924	321.70438	-2412.16895	719.90277	391.94968	-2438.13745	648.41309	374.86703	-2462.66748	579.26630	364.93130	-2510.36450	680.07581	358.94113	-2480.95337	534.75159	356.68222	-2488.63745	525.12091	228.74889	-2459.86426	399.24988	366.01132	-2477.11182	354.96869	366.36111	-2517.90356	415.33035	366.15128	-2525.92358	370.24237	364.85254	-2548.98169	92.60522	310.33783	-2574.14355	110.06289	225.14253	-2493.69458	69.83140	251.20343	-2673.54346	52.00370	338.01929	-2727.62329	93.53982	286.82889	-2699.59888	66.73740	231.66661	-2215.20508	1026.79456	193.26480	-2400.35791	986.98645	81.51880	-2290.57715	734.15643	31.69809	-2277.79712	656.23389	47.85005	-2261.15430	579.50165	57.05275	-2353.10889	647.50531	69.71661	-2245.37793	508.80865	70.51481	-2253.19971	502.00180	197.29213	-2157.35864	461.09961	60.78951	-2139.23145	420.50049	56.18684	-2210.57520	429.41275	65.50854	-2185.35669	392.53500	61.13008	-1979.20789	162.53223	116.88881	-2009.36450	155.49521	203.06631	-1916.89490	173.40720	187.00945	-2085.28540	43.52101	198.92471	-2104.31689	54.02497	142.60013	-2048.53296	46.63164	82.58096
1782	7.12400	-2224.59521	1026.78503	253.32626	-2438.01880	985.94800	321.79269	-2418.20728	720.81641	392.28864	-2443.31958	649.02814	374.66550	-2468.67651	580.17395	365.49744	-2516.35791	680.98041	359.27838	-2486.87549	535.46191	357.19019	-2493.80273	525.81219	229.31448	-2464.66797	399.90585	367.33984	-2481.55176	355.53558	367.46426	-2522.88867	415.42758	366.60330	-2530.39722	370.38614	365.29364	-2549.67651	92.51720	310.43674	-2575.02368	109.87788	225.11699	-2494.14478	70.06728	251.25209	-2674.06396	50.88254	337.98590	-2728.67529	91.61830	286.83621	-2700.23511	65.28246	231.71455	-2220.58960	1026.66980	193.74017	-2405.37622	986.79883	81.58099	-2296.83521	733.50958	32.08741	-2284.04419	655.51270	47.84023	-2268.52930	578.57745	56.20396	-2360.12231	647.17059	69.32140	-2253.75000	507.92169	70.02052	-2261.61890	500.80576	196.75356	-2165.32031	461.24619	60.54415	-2146.65186	420.89972	55.89131	-2218.08325	428.87347	65.08691	-2192.44116	392.37396	60.68280	-1983.03552	165.31242	116.61909	-2013.06726	157.67926	202.76959	-1921.17871	177.78401	186.71077	-2086.12524	43.77705	198.96266	-2105.26099	54.08661	142.59151	-2049.58350	47.56424	82.57001
1783	7.12800	-2230.22412	1026.92200	253.72253	-2443.42310	986.06757	321.84448	-2424.34937	721.81659	392.69052	-2450.18823	650.30865	375.51721	-2474.89429	581.25830	366.13007	-2522.49805	682.11658	359.71945	-2492.94116	536.31329	357.65756	-2499.12744	526.70251	229.78465	-2469.39941	400.54742	368.67609	-2485.79956	356.07928	368.43674	-2527.84985	415.55826	367.00513	-2535.79297	370.92731	366.26410	-2550.30444	92.49841	310.50681	-2575.72095	109.73444	225.06796	-2494.54248	70.33445	251.32921	-2674.56226	49.97858	337.84918	-2729.69336	89.83018	286.59897	-2700.77173	63.90709	231.49071	-2225.24414	1026.82751	193.98109	-2413.06543	987.71661	82.12769	-2302.59106	732.96118	32.38200	-2292.29980	654.42371	48.80051	-2276.99219	577.37866	57.02623	-2367.58398	646.82843	68.97153	-2262.03125	507.21432	69.47327	-2270.23755	499.57727	196.06169	-2173.87646	461.35376	60.11835	-2154.31543	421.29163	55.57500	-2225.74219	428.37274	64.59843	-2199.77832	392.18225	60.28558	-1987.12634	168.16125	116.27992	-2017.09204	159.96637	202.46503	-1925.69360	182.34975	186.41776	-2087.13013	44.18824	198.97113	-2106.40723	54.21534	142.56154	-2050.83228	48.66602	82.63114
